# xmcd CD database file
#
# Track frame offsets:
#	150
#	16435
#	33964
#	51206
#	68233
#	84009
#	101994
#	118694
#	136226
#	150396
#	165684
#	183744
#	199933
#	213960
#	230798
#	243700
#	260291
#	277469
#
# Disc length: 3909 seconds
#
# Revision: 3
# Processed by: cddbd v1.5.2PL0 Copyright (c) Steve Scherf et al.
# Submitted via: CDex 1.51
#
DISCID=090f4312
DTITLE=Various Artist - VARIOUS RC123
DYEAR=2010
DGENRE=Country
TTITLE0=Reba - Turn On The Radio
TTITLE1=Jamey Johnson - Playing The Part
TTITLE2=Luke Bryan - Someone Else Calling You Baby
TTITLE3=Zac Brown Band Ft Alan Jackson - As She's Walking Away
TTITLE4=Walker Hayes - Pants
TTITLE5=Tim Mcgraw - Felt Good On My Lips
TTITLE6=Toby Keith - Bullets In The Gun
TTITLE7=Jason Aldean - My Kinda Party
TTITLE8=Josh Kelley - Georgia Clay
TTITLE9=Adam Brand - Ready For Love
TTITLE10=Carrie Underwood - Mama's Song
TTITLE11=John Rich - Country Done Come To Town
TTITLE12=Thompson Square - Are You Gonna Kiss Me Or Not
TTITLE13=Kenny Chesney - Somewhere With You
TTITLE14=Craig Morgan - Still A Little Chicken Left On That Bone
TTITLE15=Keith Urban - Put You In A Song
TTITLE16=Gwyneth Paltrow - Country Strong
TTITLE17=Dierks Bentley - Draw Me A Map
EXTD=Top Hits USA Recurring Country Dec 2010 #123 YEAR: 2010
EXTT0=
EXTT1=
EXTT2=
EXTT3=
EXTT4=
EXTT5=
EXTT6=
EXTT7=
EXTT8=
EXTT9=
EXTT10=
EXTT11=
EXTT12=
EXTT13=
EXTT14=
EXTT15=
EXTT16=
EXTT17=
PLAYORDER=
